<mxfile host="app.diagrams.net" agent="Mozilla/5.0 (X11; Linux x86_64) AppleWebKit/537.36 (KHTML, like Gecko) Chrome/138.0.0.0 Safari/537.36" version="26.0.10">
  <diagram name="Page-1" id="j4G3obnrcwXuMp8ZRW3U">
    <mxGraphModel dx="1254" dy="682" grid="0" gridSize="10" guides="1" tooltips="1" connect="1" arrows="1" fold="1" page="1" pageScale="1" pageWidth="827" pageHeight="1169" math="0" shadow="0">
      <root>
        <mxCell id="0" />
        <mxCell id="1" parent="0" />
        <mxCell id="psMWrl8eh7SVkg0ivYHs-5" value="" style="group" vertex="1" connectable="0" parent="1">
          <mxGeometry x="111" y="439" width="80" height="40" as="geometry" />
        </mxCell>
        <mxCell id="psMWrl8eh7SVkg0ivYHs-1" value="" style="rounded=1;whiteSpace=wrap;html=1;arcSize=23;movable=1;resizable=1;rotatable=1;deletable=1;editable=1;locked=0;connectable=1;" vertex="1" parent="psMWrl8eh7SVkg0ivYHs-5">
          <mxGeometry width="80" height="40" as="geometry" />
        </mxCell>
        <mxCell id="psMWrl8eh7SVkg0ivYHs-2" value="&lt;font&gt;Dataloader&lt;/font&gt;" style="text;html=1;align=center;verticalAlign=middle;whiteSpace=wrap;rounded=0;movable=1;resizable=1;rotatable=1;deletable=1;editable=1;locked=0;connectable=1;" vertex="1" parent="psMWrl8eh7SVkg0ivYHs-5">
          <mxGeometry x="6.666666666666668" y="6.666666666666668" width="66.66666666666667" height="26.66666666666667" as="geometry" />
        </mxCell>
        <mxCell id="psMWrl8eh7SVkg0ivYHs-9" style="edgeStyle=orthogonalEdgeStyle;rounded=0;orthogonalLoop=1;jettySize=auto;html=1;exitX=1;exitY=0.5;exitDx=0;exitDy=0;" edge="1" parent="1" source="psMWrl8eh7SVkg0ivYHs-1" target="psMWrl8eh7SVkg0ivYHs-24">
          <mxGeometry relative="1" as="geometry">
            <mxPoint x="330" y="459" as="targetPoint" />
          </mxGeometry>
        </mxCell>
        <mxCell id="psMWrl8eh7SVkg0ivYHs-49" style="edgeStyle=orthogonalEdgeStyle;rounded=0;orthogonalLoop=1;jettySize=auto;html=1;entryX=0.5;entryY=1;entryDx=0;entryDy=0;" edge="1" parent="1" source="psMWrl8eh7SVkg0ivYHs-11" target="psMWrl8eh7SVkg0ivYHs-1">
          <mxGeometry relative="1" as="geometry" />
        </mxCell>
        <mxCell id="psMWrl8eh7SVkg0ivYHs-11" value="" style="points=[];aspect=fixed;html=1;align=center;shadow=0;dashed=0;fillColor=#FF6A00;strokeColor=none;shape=mxgraph.alibaba_cloud.domain_and_website;" vertex="1" parent="1">
          <mxGeometry x="113.83000000000001" y="559" width="74.35" height="60" as="geometry" />
        </mxCell>
        <mxCell id="psMWrl8eh7SVkg0ivYHs-18" value="" style="shape=image;html=1;verticalAlign=top;verticalLabelPosition=bottom;labelBackgroundColor=#ffffff;imageAspect=0;aspect=fixed;image=https://cdn1.iconfinder.com/data/icons/hawcons/32/699233-icon-124-document-file-zip-128.png" vertex="1" parent="1">
          <mxGeometry x="111" y="509" width="34" height="34" as="geometry" />
        </mxCell>
        <mxCell id="psMWrl8eh7SVkg0ivYHs-20" value="" style="image;aspect=fixed;html=1;points=[];align=center;fontSize=12;image=img/lib/azure2/general/Files.svg;" vertex="1" parent="1">
          <mxGeometry x="221" y="419" width="27.42" height="30" as="geometry" />
        </mxCell>
        <mxCell id="psMWrl8eh7SVkg0ivYHs-27" style="edgeStyle=orthogonalEdgeStyle;rounded=0;orthogonalLoop=1;jettySize=auto;html=1;entryX=0;entryY=0.5;entryDx=0;entryDy=0;" edge="1" parent="1" source="psMWrl8eh7SVkg0ivYHs-24" target="psMWrl8eh7SVkg0ivYHs-26">
          <mxGeometry relative="1" as="geometry" />
        </mxCell>
        <mxCell id="psMWrl8eh7SVkg0ivYHs-24" value="" style="sketch=0;outlineConnect=0;fontColor=#232F3E;gradientColor=none;fillColor=#7AA116;strokeColor=none;dashed=0;verticalLabelPosition=bottom;verticalAlign=top;align=center;html=1;fontSize=12;fontStyle=0;aspect=fixed;pointerEvents=1;shape=mxgraph.aws4.bucket;" vertex="1" parent="1">
          <mxGeometry x="281" y="429" width="57.69" height="60" as="geometry" />
        </mxCell>
        <mxCell id="psMWrl8eh7SVkg0ivYHs-25" value="&lt;font&gt;Raw GCP Bucket&lt;/font&gt;" style="text;html=1;align=center;verticalAlign=middle;resizable=0;points=[];autosize=1;strokeColor=none;fillColor=none;" vertex="1" parent="1">
          <mxGeometry x="249.85000000000002" y="489" width="120" height="30" as="geometry" />
        </mxCell>
        <mxCell id="psMWrl8eh7SVkg0ivYHs-40" style="edgeStyle=orthogonalEdgeStyle;rounded=0;orthogonalLoop=1;jettySize=auto;html=1;exitX=1;exitY=0.5;exitDx=0;exitDy=0;" edge="1" parent="1" source="psMWrl8eh7SVkg0ivYHs-26" target="psMWrl8eh7SVkg0ivYHs-39">
          <mxGeometry relative="1" as="geometry" />
        </mxCell>
        <mxCell id="psMWrl8eh7SVkg0ivYHs-45" style="edgeStyle=orthogonalEdgeStyle;rounded=0;orthogonalLoop=1;jettySize=auto;html=1;exitX=0.5;exitY=1;exitDx=0;exitDy=0;" edge="1" parent="1" source="psMWrl8eh7SVkg0ivYHs-26" target="psMWrl8eh7SVkg0ivYHs-29">
          <mxGeometry relative="1" as="geometry" />
        </mxCell>
        <mxCell id="psMWrl8eh7SVkg0ivYHs-26" value="&lt;font&gt;SQLMesh&lt;/font&gt;" style="shape=mxgraph.bpmn.conversation2;perimeter=hexagonPerimeter2;whiteSpace=wrap;html=1;aspect=fixed;bpmnConversationType=conv;" vertex="1" parent="1">
          <mxGeometry x="431" y="429" width="70" height="60" as="geometry" />
        </mxCell>
        <mxCell id="psMWrl8eh7SVkg0ivYHs-35" style="rounded=0;orthogonalLoop=1;jettySize=auto;html=1;entryX=0.5;entryY=1;entryDx=0;entryDy=0;" edge="1" parent="1" source="psMWrl8eh7SVkg0ivYHs-29" target="psMWrl8eh7SVkg0ivYHs-26">
          <mxGeometry relative="1" as="geometry" />
        </mxCell>
        <mxCell id="psMWrl8eh7SVkg0ivYHs-29" value="" style="sketch=0;outlineConnect=0;fontColor=#232F3E;gradientColor=none;fillColor=#C925D1;strokeColor=none;dashed=0;verticalLabelPosition=bottom;verticalAlign=top;align=center;html=1;fontSize=12;fontStyle=0;aspect=fixed;pointerEvents=1;shape=mxgraph.aws4.rds_mysql_instance;" vertex="1" parent="1">
          <mxGeometry x="436" y="559" width="60" height="60" as="geometry" />
        </mxCell>
        <mxCell id="psMWrl8eh7SVkg0ivYHs-38" value="&lt;font&gt;DuckLake metadata store&lt;/font&gt;" style="text;html=1;align=center;verticalAlign=middle;resizable=0;points=[];autosize=1;strokeColor=none;fillColor=none;" vertex="1" parent="1">
          <mxGeometry x="386" y="619" width="160" height="30" as="geometry" />
        </mxCell>
        <mxCell id="psMWrl8eh7SVkg0ivYHs-39" value="" style="sketch=0;outlineConnect=0;fontColor=#232F3E;gradientColor=none;fillColor=#7AA116;strokeColor=none;dashed=0;verticalLabelPosition=bottom;verticalAlign=top;align=center;html=1;fontSize=12;fontStyle=0;aspect=fixed;pointerEvents=1;shape=mxgraph.aws4.bucket;" vertex="1" parent="1">
          <mxGeometry x="586.01" y="429" width="57.69" height="60" as="geometry" />
        </mxCell>
        <mxCell id="psMWrl8eh7SVkg0ivYHs-41" value="&lt;font&gt;DuckLake data bucket&lt;/font&gt;" style="text;html=1;align=center;verticalAlign=middle;resizable=0;points=[];autosize=1;strokeColor=none;fillColor=none;" vertex="1" parent="1">
          <mxGeometry x="539.85" y="489" width="140" height="30" as="geometry" />
        </mxCell>
        <mxCell id="psMWrl8eh7SVkg0ivYHs-50" style="edgeStyle=orthogonalEdgeStyle;rounded=0;orthogonalLoop=1;jettySize=auto;html=1;" edge="1" parent="1" source="psMWrl8eh7SVkg0ivYHs-29">
          <mxGeometry relative="1" as="geometry">
            <mxPoint x="671" y="588" as="targetPoint" />
          </mxGeometry>
        </mxCell>
        <mxCell id="psMWrl8eh7SVkg0ivYHs-51" style="edgeStyle=orthogonalEdgeStyle;rounded=0;orthogonalLoop=1;jettySize=auto;html=1;entryX=0.5;entryY=0;entryDx=0;entryDy=0;entryPerimeter=0;" edge="1" parent="1" source="psMWrl8eh7SVkg0ivYHs-39">
          <mxGeometry relative="1" as="geometry">
            <mxPoint x="703.7049999999999" y="559" as="targetPoint" />
          </mxGeometry>
        </mxCell>
        <mxCell id="psMWrl8eh7SVkg0ivYHs-52" value="" style="aspect=fixed;sketch=0;html=1;dashed=0;whitespace=wrap;verticalLabelPosition=bottom;verticalAlign=top;fillColor=#2875E2;strokeColor=#ffffff;points=[[0.005,0.63,0],[0.1,0.2,0],[0.9,0.2,0],[0.5,0,0],[0.995,0.63,0],[0.72,0.99,0],[0.5,1,0],[0.28,0.99,0]];shape=mxgraph.kubernetes.icon2;kubernetesLabel=1;prIcon=user" vertex="1" parent="1">
          <mxGeometry x="668.2900000000001" y="689" width="62.5" height="60" as="geometry" />
        </mxCell>
        <mxCell id="psMWrl8eh7SVkg0ivYHs-54" value="" style="aspect=fixed;sketch=0;html=1;dashed=0;whitespace=wrap;verticalLabelPosition=bottom;verticalAlign=top;fillColor=#2875E2;strokeColor=#ffffff;points=[[0.005,0.63,0],[0.1,0.2,0],[0.9,0.2,0],[0.5,0,0],[0.995,0.63,0],[0.72,0.99,0],[0.5,1,0],[0.28,0.99,0]];shape=mxgraph.kubernetes.icon2;kubernetesLabel=1;prIcon=api" vertex="1" parent="1">
          <mxGeometry x="669.85" y="560.5" width="60.94" height="58.5" as="geometry" />
        </mxCell>
        <mxCell id="psMWrl8eh7SVkg0ivYHs-55" style="edgeStyle=orthogonalEdgeStyle;rounded=0;orthogonalLoop=1;jettySize=auto;html=1;exitX=0.5;exitY=0;exitDx=0;exitDy=0;exitPerimeter=0;entryX=0.5;entryY=1;entryDx=0;entryDy=0;entryPerimeter=0;" edge="1" parent="1" source="psMWrl8eh7SVkg0ivYHs-52" target="psMWrl8eh7SVkg0ivYHs-54">
          <mxGeometry relative="1" as="geometry" />
        </mxCell>
        <mxCell id="psMWrl8eh7SVkg0ivYHs-56" style="edgeStyle=orthogonalEdgeStyle;rounded=0;orthogonalLoop=1;jettySize=auto;html=1;exitX=0.5;exitY=1;exitDx=0;exitDy=0;exitPerimeter=0;entryX=0.5;entryY=0;entryDx=0;entryDy=0;entryPerimeter=0;" edge="1" parent="1" source="psMWrl8eh7SVkg0ivYHs-54" target="psMWrl8eh7SVkg0ivYHs-52">
          <mxGeometry relative="1" as="geometry" />
        </mxCell>
        <mxCell id="psMWrl8eh7SVkg0ivYHs-57" value="&lt;font&gt;ClinicalTrials.gov&lt;/font&gt;" style="text;html=1;align=center;verticalAlign=middle;resizable=0;points=[];autosize=1;strokeColor=none;fillColor=none;" vertex="1" parent="1">
          <mxGeometry x="96" y="619" width="110" height="30" as="geometry" />
        </mxCell>
        <mxCell id="psMWrl8eh7SVkg0ivYHs-58" value=".parquet" style="text;html=1;align=center;verticalAlign=middle;resizable=0;points=[];autosize=1;strokeColor=none;fillColor=none;" vertex="1" parent="1">
          <mxGeometry x="501" y="429" width="70" height="30" as="geometry" />
        </mxCell>
        <mxCell id="psMWrl8eh7SVkg0ivYHs-59" value="*.json" style="text;html=1;align=center;verticalAlign=middle;resizable=0;points=[];autosize=1;strokeColor=none;fillColor=none;" vertex="1" parent="1">
          <mxGeometry x="346" y="427" width="50" height="30" as="geometry" />
        </mxCell>
        <mxCell id="psMWrl8eh7SVkg0ivYHs-60" value="JSON" style="text;html=1;align=center;verticalAlign=middle;resizable=0;points=[];autosize=1;strokeColor=none;fillColor=none;" vertex="1" parent="1">
          <mxGeometry x="643.7" y="637" width="60" height="30" as="geometry" />
        </mxCell>
      </root>
    </mxGraphModel>
  </diagram>
</mxfile>
